<?xml version="1.0" encoding="utf-8"?>
<svg width="100%" height="100%" viewBox="0 0 516 174" version="1.1" style="fill-rule:evenodd;clip-rule:evenodd;stroke-linejoin:round;stroke-miterlimit:2;" xmlns="http://www.w3.org/2000/svg">
  <g transform="matrix(6.97297,0,0,3.22222,-760.054,-2532.66)">
    <rect x="109" y="786" width="74" height="54" style="fill: rgb(39, 41, 40);"/>
  </g>
  <g transform="matrix(0.666667,0,0,1,22.667,-770.995)">
    <rect x="356" y="793" width="3" height="130" style="fill: rgb(62, 64, 63);"/>
  </g>
  <g transform="matrix(1.99999,0,0,1.99999,81.3923,-7.65582)">
    <path d="M32.058,13.829L20.058,13.829C15.441,13.828 12.555,18.826 14.862,22.825C16.847,26.263 21.563,26.86 24.342,24.026L27.772,24.026C31.005,27.324 36.594,25.885 37.834,21.438C38.899,17.615 36.026,13.83 32.058,13.829ZM23.358,20.278C23.358,20.526 23.157,20.728 22.908,20.728L20.958,20.728L20.958,22.677C20.958,22.925 20.757,23.127 20.508,23.127L19.608,23.127C19.36,23.127 19.159,22.925 19.159,22.677L19.159,20.728L17.209,20.728C16.961,20.728 16.76,20.526 16.76,20.278L16.76,19.378C16.76,19.129 16.961,18.928 17.209,18.928L19.159,18.928L19.159,16.978C19.159,16.729 19.36,16.528 19.608,16.528L20.508,16.528C20.757,16.528 20.958,16.729 20.958,16.978L20.958,18.928L22.908,18.928C23.157,18.928 23.358,19.129 23.358,19.378L23.358,20.278ZM31.455,23.127C30.301,23.127 29.58,21.877 30.156,20.878C30.734,19.877 32.177,19.877 32.754,20.878C32.886,21.106 32.955,21.364 32.955,21.627C32.955,22.456 32.283,23.127 31.455,23.127ZM33.855,19.528C32.7,19.528 31.979,18.278 32.556,17.278C33.133,16.279 34.576,16.279 35.154,17.278C35.285,17.506 35.355,17.764 35.355,18.028C35.355,18.856 34.683,19.528 33.855,19.528Z" style="fill:rgb(198,198,198);fill-rule:nonzero;"/>
  </g>
  <g transform="matrix(1.2,0,0,1.2,355.471,8.36208)">
    <path d="M27.521,9.7C27.305,9.7 27.089,9.869 26.926,10.206L24.709,14.739C24.38,15.414 23.507,16.051 22.772,16.159L17.82,16.886C17.083,16.994 16.917,17.512 17.45,18.036L21.035,21.564C21.568,22.09 21.901,23.124 21.775,23.863L20.927,28.848C20.835,29.384 21.039,29.7 21.41,29.7C21.58,29.693 21.747,29.645 21.896,29.559L26.327,27.204C26.658,27.03 27.09,26.945 27.522,26.945C27.957,26.945 28.393,27.031 28.719,27.204L33.152,29.559C33.33,29.654 33.498,29.7 33.637,29.7C34.009,29.7 34.211,29.384 34.121,28.848L33.272,23.863C33.148,23.124 33.481,22.089 34.011,21.564L37.598,18.036C38.13,17.512 37.965,16.994 37.227,16.886L32.273,16.161C31.538,16.052 30.666,15.415 30.337,14.74L28.122,10.206C27.955,9.869 27.741,9.7 27.521,9.7Z" style="fill:rgb(198,198,198);fill-rule:nonzero;"/>
  </g>
</svg>