<?xml version="1.0" encoding="UTF-8" standalone="no"?>
<!-- Generator: Adobe Illustrator 25.0.0, SVG Export Plug-In . SVG Version: 6.00 Build 0)  -->

<svg
   version="1.1"
   id="Layer_1"
   x="0px"
   y="0px"
   viewBox="0 0 3840 1078.5"
   style="enable-background:new 0 0 3840 1078.5;"
   xml:space="preserve"
   xmlns="http://www.w3.org/2000/svg"
   xmlns:svg="http://www.w3.org/2000/svg"><defs
   id="defs67"><clipPath
     clipPathUnits="userSpaceOnUse"
     id="clipPath1633"><path
       d="m 211.7,453.8 c -111.7,0 -171,100.1 -171,209.5 0,109.4 59.3,209.5 171,209.5 h 143 v 22 c 0,39.6 -32.4,71.9 -71.9,71.9 H 79.6 v 71.1 h 226.3 c 76.4,0 138.3,-61.9 138.3,-138.3 V 872.7 801.6 524.9 453.8 h -89.4 z m 143,347.9 c -41.7,0 -87.2,0 -110.9,0 -17.2,0 -102.7,-8.5 -102.7,-138.4 0,-129.9 85.4,-138.4 102.7,-138.4 23.7,0 69.2,0 110.9,0 z"
       id="path1635"
       style="display:none" /><path
       id="lpe_path-effect1637"
       class="powerclip"
       d="m -5,408.1 h 494.9 v 675.5 H -5 Z m 216.7,45.7 c -111.7,0 -171,100.1 -171,209.5 0,109.4 59.3,209.5 171,209.5 h 143 v 22 c 0,39.6 -32.4,71.9 -71.9,71.9 H 79.6 v 71.1 h 226.3 c 76.4,0 138.3,-61.9 138.3,-138.3 V 872.7 801.6 524.9 453.8 h -89.4 z m 143,347.9 V 524.9 c -41.7,0 -87.2,0 -110.9,0 -17.3,0 -102.7,8.5 -102.7,138.4 0,129.9 85.5,138.4 102.7,138.4 23.7,0 69.2,0 110.9,0 z" /></clipPath><clipPath
     clipPathUnits="userSpaceOnUse"
     id="clipPath1641"><path
       d="m 757.2,627.8 h -101 c -67.7,0 -122.5,54.9 -122.5,122.5 0,67.7 54.9,122.5 122.5,122.5 h 174.4 v 0 H 920 v 0 0 -71.1 0 -102.9 0 -71.1 0 V 592 C 920,515.6 858.1,453.7 781.7,453.7 H 555.4 v 71.1 h 203.2 c 39.6,0 71.9,32.4 71.9,71.9 v 30.9 h -73.3 m 73.3,174.1 H 673.9 c -28.1,0 -50.8,-22.8 -50.8,-50.8 v -1.3 c 0,-28.1 22.7,-50.8 50.8,-50.8 h 156.6 z"
       id="path1643"
       style="display:none" /><path
       id="lpe_path-effect1645"
       class="powerclip"
       d="M 487.87864,408.1 H 965.6 V 918.5 H 487.87864 Z M 757.2,627.8 h -101 c -67.7,0 -122.5,54.9 -122.5,122.5 0,67.7 54.9,122.5 122.5,122.5 h 174.4 v 0 H 920 v 0 0 -71.1 0 -102.9 0 -71.1 0 V 592 C 920,515.6 858.1,453.7 781.7,453.7 H 555.4 v 71.1 h 203.2 c 39.6,0 71.9,32.4 71.9,71.9 v 30.9 h -73.3 m 73.3,174.1 V 698.8 H 673.9 c -28.1,0 -50.8,22.7 -50.8,50.8 v 1.3 c 0,28 22.7,50.8 50.8,50.8 z" /></clipPath><clipPath
     clipPathUnits="userSpaceOnUse"
     id="clipPath2377"><path
       d="m 1446.8,453.8 h -36.5 -60.4 -89.4 -39.9 -105.8 v 0 h -89.4 v 419 h 89.4 V 524.9 h 105.8 39.9 v 347.9 h 89.4 V 524.9 h 60.4 13.4 c 39.6,0 71.9,32.4 71.9,71.9 v 276 H 1585 V 592.1 c 0.1,-76.4 -61.8,-138.3 -138.2,-138.3 z"
       id="path2379"
       style="display:none" /><path
       id="lpe_path-effect2381"
       class="powerclip"
       d="m 979.5,408.1 h 651.2 V 918.5 H 979.5 Z m 467.3,45.7 h -36.5 -60.4 -89.4 -39.9 -105.8 v 0 h -89.4 v 419 h 89.4 V 524.9 h 105.8 39.9 v 347.9 h 89.4 V 524.9 h 60.4 13.4 c 39.6,0 71.9,32.4 71.9,71.9 v 276 H 1585 V 592.1 c 0.1,-76.4 -61.8,-138.3 -138.2,-138.3 z" /></clipPath><clipPath
     clipPathUnits="userSpaceOnUse"
     id="clipPath2385"><path
       d="m 1877.1,524.9 c 50.5,0 136.3,0 136.3,0 V 453.8 H 1845 c -111.7,0 -171,100.1 -171,209.5 0,109.4 59.3,209.5 171,209.5 h 168.4 v -71.1 c 0,0 -85.8,0 -136.3,0 -15.5,0 -86.2,-7 -100.2,-102.9 h 236.5 v -71.1 h -236.5 c 14,-95.9 84.7,-102.8 100.2,-102.8 z"
       id="path2387"
       style="display:none" /><path
       id="lpe_path-effect2389"
       class="powerclip"
       d="M 1628.2,408.1 H 2059 v 510.4 h -430.8 z m 248.9,116.8 c 50.5,0 136.3,0 136.3,0 V 453.8 H 1845 c -111.7,0 -171,100.1 -171,209.5 0,109.4 59.3,209.5 171,209.5 h 168.4 v -71.1 c 0,0 -85.8,0 -136.3,0 -15.5,0 -86.2,-7 -100.2,-102.9 h 236.5 v -71.1 h -236.5 c 14,-95.9 84.7,-102.8 100.2,-102.8 z" /></clipPath><clipPath
     clipPathUnits="userSpaceOnUse"
     id="clipPath3121"><path
       d="m 2274.9,765.7 c -11.9,-20.6 -76.1,6.6 -144.4,58.5 -68.3,51.9 -119.5,108.9 -99.9,126.2 24.3,21.4 87,-8.8 152,-57.8 56.3,-42.5 101.2,-111.5 92.3,-126.9 z m -103.8,116.1 c -56.3,42.6 -115.1,67.6 -129.2,56.9 -17.6,-13.4 31.3,-62.7 90.5,-107.8 59.2,-45 114.6,-73 123.2,-57.5 6.4,11.7 -35.6,71.5 -84.5,108.4 z"
       id="path3123" /></clipPath><clipPath
     clipPathUnits="userSpaceOnUse"
     id="clipPath3137"><path
       d="m 2393.1,663.3 c 0,-129.9 85.4,-138.4 102.7,-138.4 50.5,0 136.3,0 136.3,0 v -71.1 h -168.4 c -111.7,0 -171,100.1 -171,209.5 0,109.4 59.3,209.5 171,209.5 h 168.4 v -71.1 c 0,0 -85.8,0 -136.3,0 -17.2,0 -102.7,-8.5 -102.7,-138.4 z"
       id="path3139"
       style="display:none" /><path
       id="lpe_path-effect3141"
       class="powerclip"
       d="m 2247,408.1 h 430.8 V 918.5 H 2247 Z m 146.1,255.2 c 0,-129.9 85.4,-138.4 102.7,-138.4 50.5,0 136.3,0 136.3,0 v -71.1 h -168.4 c -111.7,0 -171,100.1 -171,209.5 0,109.4 59.3,209.5 171,209.5 h 168.4 v -71.1 c 0,0 -85.8,0 -136.3,0 -17.2,0 -102.7,-8.5 -102.7,-138.4 z" /></clipPath><clipPath
     clipPathUnits="userSpaceOnUse"
     id="clipPath3145"><path
       d="m 2931.2,450.5 c -134.6,0 -220.2,78.7 -220.2,220.2 0,141.5 85.6,220.2 220.2,220.2 134.6,0 220.2,-78.7 220.2,-220.2 0,-141.5 -85.6,-220.2 -220.2,-220.2 z m 0,372.9 c -84.2,0 -125,-56.9 -125,-152.7 0,-95.8 40.8,-152.7 125,-152.7 84.2,0 125,56.9 125,152.7 -0.1,95.8 -40.8,152.7 -125,152.7 z"
       id="path3147"
       style="display:none" /><path
       id="lpe_path-effect3149"
       class="powerclip"
       d="m 2665.3,404.7 h 531.8 v 531.8 h -531.8 z m 265.9,45.8 c -134.6,0 -220.2,78.7 -220.2,220.2 0,141.5 85.6,220.2 220.2,220.2 134.6,0 220.2,-78.7 220.2,-220.2 0,-141.5 -85.6,-220.2 -220.2,-220.2 z m 0,372.9 c 84.2,0 124.9,-56.9 125,-152.7 0,-95.8 -40.8,-152.7 -125,-152.7 -84.2,0 -125,56.9 -125,152.7 0,95.8 40.8,152.7 125,152.7 z" /></clipPath><clipPath
     clipPathUnits="userSpaceOnUse"
     id="clipPath3881"><path
       d="m 3661,453.8 h -421.5 v 419 h 89.4 V 524.9 h 145.7 V 872.8 H 3564 V 524.9 h 73.8 c 39.6,0 71.9,32.4 71.9,71.9 v 276 h 89.4 V 592.1 c 0.2,-76.4 -61.7,-138.3 -138.1,-138.3 z"
       id="path3883"
       style="display:none" /><path
       id="lpe_path-effect3885"
       class="powerclip"
       d="M 3193.8,408.1 H 3845 v 510.4 h -651.2 z m 467.2,45.7 h -421.5 v 419 h 89.4 V 524.9 h 145.7 V 872.8 H 3564 V 524.9 h 73.8 c 39.6,0 71.9,32.4 71.9,71.9 v 276 h 89.4 V 592.1 c 0.2,-76.4 -61.7,-138.3 -138.1,-138.3 z" /></clipPath></defs>
<style
   type="text/css"
   id="style2">
	.st0{fill:#CDD4D6;}
	.st1{fill:#FF0000;}
	.st2{fill:#A8A8A8;}
</style>
<g
   id="g62">
	<g
   id="g42">
		<path
   class="st2"
   d="M 3669.2,889.1 V 596.8 c 0,-17.3 -14,-31.3 -31.3,-31.3 h -33.1 V 889 c 0,13.5 -10.9,24.4 -24.4,24.4 h -122 c -13.5,0 -24.4,-10.9 -24.4,-24.4 V 565.6 h -64.4 v 323.5 c 0,13.5 -10.9,24.4 -24.4,24.4 h -122 c -13.5,0 -24.4,-10.9 -24.4,-24.4 V 437.5 c 0,-13.5 10.9,-24.4 24.4,-24.4 H 3661 c 98.8,0 179,80.1 179,179 v 297 c 0,13.5 -10.9,24.4 -24.4,24.4 h -122 c -13.5,0 -24.4,-10.9 -24.4,-24.4 z"
   id="path4"
   clip-path="url(#clipPath3881)"
   style="fill:#ffffff;fill-opacity:1" />
		<path
   class="st2"
   d="M2199.8,941.4c13.9-8.5,25.7-20.2,34.2-34.1c0.1-0.2,0.2-0.4,0.3-0.6c2.1-3.4,4-7,5.7-10.7    c42.5-41.8,94.2-108.8,70.1-150.7c-10-17.3-28.6-27.3-50.9-27.3c-28.3,0-63.4,15.9-94.1,33.8c-5.5-1-11.1-1.6-16.8-1.7    c-0.7,0-1.4-0.1-2.1-0.1c-3.5,0-6.9,0.2-10.3,0.5c-1.1,0.1-2.1,0.3-3.1,0.5c-2.3,0.3-4.6,0.6-6.9,1.1c-1.3,0.3-2.6,0.6-3.9,1    c-1.9,0.5-3.8,0.9-5.7,1.5c-1.5,0.4-2.9,1-4.3,1.5c-1.7,0.6-3.3,1.1-4.9,1.8c-1.5,0.6-3,1.3-4.5,2c-1.4,0.7-2.9,1.3-4.3,2.1    c-1.6,0.8-3.1,1.7-4.6,2.6c-1.2,0.7-2.5,1.5-3.7,2.3c-1.6,1-3.1,2.1-4.6,3.2c-1.1,0.8-2.1,1.5-3.1,2.4c-1.6,1.2-3.1,2.5-4.5,3.9    c-0.9,0.8-1.7,1.5-2.6,2.4c-1.5,1.5-3,3-4.4,4.5c-0.7,0.8-1.4,1.5-2.1,2.3c-1.5,1.7-2.9,3.4-4.3,5.2c-0.5,0.7-1.1,1.4-1.6,2.1    c-1.4,1.9-2.7,3.9-4,5.9c-0.4,0.6-0.8,1.3-1.2,1.9c-1.3,2.2-2.5,4.3-3.6,6.6c-0.3,0.5-0.5,1.1-0.8,1.7c-1.1,2.4-2.2,4.8-3.2,7.3    c-0.2,0.5-0.3,0.9-0.5,1.4c-1,2.6-1.9,5.3-2.6,8c-0.1,0.3-0.2,0.7-0.3,1c-0.8,2.9-1.4,5.7-2,8.7c0,0.2-0.1,0.4-0.1,0.5    c-0.5,3.1-1,6.2-1.2,9.4c-31.6,31-56.6,64.3-57.7,93.2c-0.6,16.8,5.7,31.9,17.9,42.7c8.9,7.8,24.5,17.2,48.6,17.2c0,0,0,0,0,0    c7.2,0,14.9-0.9,23.1-2.6c4.5,1.1,9.2,1.7,14.1,1.7c21.5,0,40.4-11.2,51.3-28.1c7.6-4.2,15.5-9.1,23.6-14.2c0,0,0,0,0,0    c12.5-2.2,24.3-6.7,34.8-13.1C2199.3,941.7,2199.6,941.6,2199.8,941.4z"
   id="path6"
   clip-path="url(#clipPath3121)"
   style="fill:#ffffff;fill-opacity:1" />
		<path
   class="st2"
   d="M 1454.9,889.1 V 596.8 c 0,-17.3 -14,-31.3 -31.3,-31.3 h -33.1 V 889 c 0,13.5 -10.9,24.4 -24.4,24.4 h -122 c -13.5,0 -24.4,-10.9 -24.4,-24.4 V 565.6 h -64.4 v 323.5 c 0,13.5 -10.9,24.4 -24.4,24.4 h -122 c -13.5,0 -24.4,-10.9 -24.4,-24.4 V 437.5 c 0,-13.5 10.9,-24.4 24.4,-24.4 h 437.8 c 98.8,0 179,80.1 179,179 v 297 c 0,13.5 -10.9,24.4 -24.4,24.4 h -122 c -13.4,0 -24.4,-10.9 -24.4,-24.4 z"
   id="path8"
   clip-path="url(#clipPath2377)"
   style="fill:#ffffff;fill-opacity:1" />
		<path
   class="st2"
   d="m 656.1,913.5 c -89.1,0 -161.7,-71.7 -163.2,-160.4 -1.5,-91.3 76.2,-166 167.5,-166 h 127.8 c -4.1,-12.5 -15.9,-21.5 -29.7,-21.5 H 539.1 c -13.5,0 -24.4,-10.9 -24.4,-24.4 V 437.5 c 0,-13.5 10.9,-24.4 24.4,-24.4 h 242.5 c 98.8,0 179,80.1 179,179 v 297 c 0,13.5 -10.9,24.4 -24.4,24.4 z m 17.8,-174 c -5.6,0 -10.1,4.5 -10.1,10.1 v 1.3 c 0,5.6 4.5,10.1 10.1,10.1 h 115.9 v -21.5 z"
   id="path10"
   clip-path="url(#clipPath1641)"
   style="fill:#ffffff;fill-opacity:1" />
		<path
   class="st2"
   d="M 38.9,1054.2 V 950.5 c 0,-13.5 10.9,-24.4 24.4,-24.4 h 219.5 c 10.2,0 19.3,-5 25,-12.6 H 211.6 C 87,913.5 0,810.6 0,663.3 0,516 87,413.1 211.7,413.1 h 248.8 c 13.5,0 24.4,10.9 24.4,24.4 v 462.1 c 0,98.8 -80.1,179 -179,179 H 63.3 c -13.4,-0.1 -24.4,-11 -24.4,-24.4 z M 243.8,565.6 c -14.5,0 -62,7 -62,97.7 0,90.7 47.4,97.7 62,97.7 H 314 V 565.6 Z"
   id="path12"
   clip-path="url(#clipPath1633)"
   style="fill:#ffffff;fill-opacity:1" />
		<path
   class="st2"
   d="m 1844.9,913.5 c -124.6,0 -211.7,-102.9 -211.7,-250.2 0,-147.3 87.1,-250.2 211.7,-250.2 h 184.7 c 13.5,0 24.4,10.9 24.4,24.4 v 103.6 c 0,13.5 -10.9,24.4 -24.4,24.4 H 1877 c -7.7,0 -27.2,2.1 -42.2,21.5 h 194.8 c 13.5,0 24.4,10.9 24.4,24.4 V 715 c 0,13.5 -10.9,24.4 -24.4,24.4 h -194.8 c 15.1,19.4 34.5,21.5 42.2,21.5 h 152.6 c 13.5,0 24.4,10.9 24.4,24.4 v 103.6 c 0,13.5 -10.9,24.4 -24.4,24.4 h -184.7 z"
   id="path14"
   clip-path="url(#clipPath2385)"
   style="fill:#ffffff;fill-opacity:1" />
		<path
   class="st2"
   d="M 2463.7,913.5 C 2339.1,913.5 2252,810.6 2252,663.3 2252,516 2339,413.1 2463.7,413.1 h 184.7 c 13.5,0 24.4,10.9 24.4,24.4 v 103.6 c 0,13.5 -10.9,24.4 -24.4,24.4 h -152.6 c -14.5,0 -62,7 -62,97.7 0,90.7 47.4,97.7 62,97.7 h 152.6 c 13.5,0 24.4,10.9 24.4,24.4 v 103.6 c 0,13.5 -10.9,24.4 -24.4,24.4 h -184.7 z"
   id="path16"
   clip-path="url(#clipPath3137)"
   style="fill:#ffffff;fill-opacity:1" />
		<path
   class="st2"
   d="m 2931.2,931.5 c -160.9,0 -260.9,-100 -260.9,-260.9 0,-160.9 100,-260.9 260.9,-260.9 160.9,0 260.9,100 260.9,260.9 0,160.9 -100,260.9 -260.9,260.9 z m 0,-372.9 c -23.1,0 -84.3,0 -84.3,112 0,112 61.2,112 84.3,112 23.1,0 84.3,0 84.3,-112 -0.1,-112 -61.3,-112 -84.3,-112 z"
   id="path18"
   clip-path="url(#clipPath3145)"
   style="fill:#ffffff;fill-opacity:1" />
		
		
		
		
		
		
		
		<circle
   cx="2146.2"
   cy="853.4"
   r="62.5"
   id="circle34"
   style="fill:#ffffff;fill-opacity:1" />
		<path
   d="M2192.4,811.2c10.1,11.1,16.3,25.9,16.3,42.1c0,34.5-28,62.5-62.5,62.5c-23.2,0-43.5-12.6-54.3-31.4"
   id="path36"
   style="fill:#ffffff;fill-opacity:1" />
		
		<circle
   cx="2089.3"
   cy="936.2"
   r="20.3"
   id="circle40"
   style="fill:#ffffff;fill-opacity:1" />
	</g>
	<g
   id="g60"
   style="fill:#ffffff;fill-opacity:1">
		<g
   id="g58"
   style="fill:#ffffff;fill-opacity:1">
			<rect
   x="1529.7"
   y="0"
   class="st1"
   width="82.8"
   height="287.8"
   id="rect44"
   style="fill:#ffffff;fill-opacity:1" />
			<polygon
   class="st1"
   points="1302.3,70.6 1362.8,70.6 1362.8,71.5 1362.8,286.1 1362.8,287.8 1445.6,287.8 1445.6,286.1      1445.6,71.5 1445.6,70.6 1506.1,70.6 1506.1,0 1302.3,0    "
   id="polygon46"
   style="fill:#ffffff;fill-opacity:1" />
			<path
   class="st1"
   d="M1758,0c-82.5,0-126.4,72-126.4,143.9s43.9,143.9,126.4,143.9c0-11.8,0,0,0,0h148.8v-1.8v-68.8v-38.1v-70.6     v0h-146v70.6h63.2v38.1h-42.2c0,0,0,0,0,0c-97.8,0-97.8-146.7,0-146.7l0,0h125V0H1758C1758,0,1758,11.8,1758,0z"
   id="path48"
   style="fill:#ffffff;fill-opacity:1" />
			<path
   class="st1"
   d="M2818,120.9c-22.9-12.2-50.6,5.2-50.6,31.2c0,1.8,0,3.6,0,5.4c0,10.3,5.1,19.4,12.8,26.2     c11.4,10.1,7.1,33.6-12.8,33.6v0h-375.8v-27.5c0-11.4-6.5-21.2-16-26.1c20.9-17,34-45.5,34-74c0-44.8-32-89.6-76.4-89.6v0h-132.1     l0,0h-41.4v195h82.8V70.6h62c10.3,0,19.5,7.7,20.1,18c0.6,11-8.2,20.1-19,20.1h-40.3v70.6h23.3c11.1,0,20.2,9,20.2,20.2v88.5     h82.8l0,0h375.8l0,0c59.7,0,99.8-44.8,99.8-89.6C2867.2,167.8,2848.7,137.3,2818,120.9z"
   id="path50"
   style="fill:#ffffff;fill-opacity:1" />
			<path
   class="st1"
   d="M1478.9,76.1c-15,0-27.2,12.2-27.2,27.2c0,15,12.2,27.2,27.2,27.2c15,0,27.2-12.2,27.2-27.2     C1506.1,88.3,1493.9,76.1,1478.9,76.1z"
   id="path52"
   style="fill:#ffffff;fill-opacity:1" />
			<path
   class="st1"
   d="M1329.5,76.1c-15,0-27.2,12.2-27.2,27.2c0,15,12.2,27.2,27.2,27.2c15,0,27.2-12.2,27.2-27.2     C1356.7,88.3,1344.5,76.1,1329.5,76.1z"
   id="path54"
   style="fill:#ffffff;fill-opacity:1" />
			<path
   class="st1"
   d="M2020.1,198.2c0-10.5,8.5-19,19-19h105.4v-70.6h-105.4c-10.5,0-19-8.5-19-19s8.5-19,19-19h105.4V0h-132.1     l0,0h-13.6c-41,0-74.3,33.3-74.3,74.3v10.6c0,32.6,25.6,59.1,33.6,59.1c-8,0-33.6,26.4-33.6,59.1v10.6c0,41,33.3,74.3,74.3,74.3     h13.6l0,0h230.1v-70.6h-203.5C2028.6,217.3,2020.1,208.8,2020.1,198.2z"
   id="path56"
   style="fill:#ffffff;fill-opacity:1" />
		</g>
	</g>
</g>
</svg>
